<svg width="148" height="62" viewBox="0 0 148 62" fill="none" xmlns="http://www.w3.org/2000/svg">
<g clip-path="url(#clip0_11151_737)">
<mask id="path-1-outside-1_11151_737" maskUnits="userSpaceOnUse" x="0" y="1" width="148" height="46" fill="black">
<rect fill="white" y="1" width="148" height="46"/>
<path d="M0.836152 34C0.701152 34 0.701152 33.775 0.836152 33.775H2.68115C2.86115 33.775 2.99615 33.685 2.99615 33.46V14.065C2.99615 13.84 2.90615 13.75 2.68115 13.75H0.431152C0.386152 13.75 0.296152 13.75 0.296152 13.66C0.296152 13.57 0.386152 13.525 0.431152 13.525H2.68115C2.86115 13.525 2.99615 13.435 2.99615 13.21V11.77C2.99615 4.93 6.86615 0.744999 13.0312 1.33C15.5962 1.6 14.6512 3.49 13.1662 3.085C4.97615 0.879997 4.66115 5.335 4.66115 11.77V13.21C4.66115 13.435 4.75115 13.525 4.97615 13.525H8.12615C8.30615 13.525 8.30615 13.75 8.12615 13.75H4.97615C4.75115 13.75 4.66115 13.84 4.66115 14.065V33.46C4.66115 33.685 4.75115 33.775 4.97615 33.775H6.82115C6.95615 33.775 6.95615 34 6.82115 34H0.836152ZM23.4859 22.615C22.6759 28.51 19.3909 34.225 14.3509 34.225C11.0209 34.225 9.13092 32.29 9.13092 29.5C9.13092 24.73 14.4859 24.415 19.4359 22.795C23.1709 21.58 23.5309 20.05 23.5309 17.71C23.5309 15.595 22.0909 13.21 18.4009 13.21C14.8459 13.21 12.8209 15.505 12.8209 17.8C12.8209 18.385 13.1359 19.015 13.1359 19.555C13.1359 20.14 12.6859 20.545 12.1909 20.545C11.6059 20.545 11.1559 20.05 11.1559 18.835C11.1559 15.64 14.2609 12.985 18.4009 12.985C23.0809 12.985 25.1509 15.415 25.1509 18.115V32.155C25.1509 33.01 25.6909 33.775 26.5909 33.775C27.3109 33.775 27.9409 33.19 27.9409 32.245C27.9409 32.155 27.9859 32.11 28.0309 32.11C28.1209 32.11 28.1659 32.155 28.1659 32.245C28.1659 33.595 27.2209 34.135 25.9609 34.135C24.4309 34.135 23.4859 33.055 23.4859 31.21V22.615ZM14.6659 33.82C20.3359 33.82 23.4859 25.765 23.4859 20.005C23.1259 21.31 22.1359 22.075 19.6609 22.975C16.2409 24.19 11.0209 24.595 11.0209 29.365V29.77C11.0209 32.065 12.3709 33.82 14.6659 33.82ZM37.8381 13.21H37.5231C33.2931 13.21 29.7831 16.36 29.7831 23.335V23.83C29.7831 29.815 31.5831 34.045 37.3881 34.045C41.9331 34.045 44.1381 30.4 43.2831 27.79C42.8331 26.53 44.8581 25.99 44.9931 27.7C45.2631 30.985 41.5731 34.225 37.4331 34.225C30.8631 34.225 27.9381 29.725 27.9381 23.83V23.335C27.9381 16.495 32.9331 12.985 37.5231 12.985H37.8381C42.1581 12.985 45.2181 15.28 44.9031 18.565C44.7231 20.365 42.6531 19.735 43.1031 18.52C44.0481 15.955 42.2481 13.21 37.8381 13.21ZM55.2116 34.225C48.7316 34.225 46.0316 29.545 46.1666 23.335C46.3016 17.035 50.8916 12.985 56.1116 12.985C60.3416 12.985 63.1316 14.965 63.1316 18.25C63.1316 20.68 60.7916 22.66 58.0466 23.38C53.5016 24.505 47.6516 25.81 48.5966 29.59C49.7666 32.335 51.3416 34 55.2116 34C59.6216 34 62.3216 30.4 61.5116 27.79C61.0616 26.44 63.1766 26.035 63.2216 27.7C63.3566 30.985 59.3966 34.225 55.2116 34.225ZM61.4666 18.07C61.4666 15.37 60.0716 13.21 55.8866 13.21C51.2516 13.21 48.1466 16.765 47.8766 22.93C47.8316 24.775 47.9666 26.755 48.3266 28.51C48.6416 25.09 53.7716 24.28 57.7766 23.155C60.0716 22.48 61.4666 20.68 61.4666 18.07ZM73.5941 12.985C75.7991 12.985 77.8691 13.57 79.4441 14.65C79.1291 14.065 78.9941 13.48 78.9941 12.895C78.9941 10.645 81.1091 8.71 83.3141 8.71C84.4841 8.71 84.9341 9.16 84.9341 9.7C84.9341 10.15 84.5741 10.555 84.0341 10.555C83.5841 10.555 83.0441 10.33 82.5941 10.33C80.7941 10.33 79.3091 11.59 79.3091 13.075C79.3091 13.66 79.4891 14.335 79.8491 14.92C81.5591 16.225 82.6841 18.205 82.6841 20.905V21.31C82.6841 25.9 79.5341 29.59 73.5491 29.59C71.0741 29.59 69.1391 29.005 67.6541 27.925C65.6741 28.195 64.6391 29.77 64.6391 31.345C64.6391 32.965 65.8091 34.585 68.2391 34.585H78.4541C81.8291 34.585 83.8091 37.105 83.8091 39.85C83.8091 43.045 81.0641 46.51 74.6741 46.51H72.4691C65.6291 46.51 62.9741 43.36 62.9741 40.435C62.9741 38.365 64.2791 36.43 66.3041 35.8C64.4591 35.215 63.6041 33.73 63.6041 32.2C63.6041 30.175 65.0441 28.105 67.4291 27.79C65.4491 26.26 64.4591 23.92 64.4591 21.31V20.905C64.4591 15.91 68.7791 12.985 73.5941 12.985ZM73.5941 13.21C69.8591 13.21 66.2591 15.28 66.2591 20.905V21.31C66.2591 25.945 68.3741 29.41 73.5491 29.41C78.7241 29.41 80.8841 25.945 80.8841 21.31V20.905C80.8841 15.28 77.3741 13.21 73.5941 13.21ZM68.2841 36.16C67.7891 36.16 67.3841 36.115 66.9791 36.025C65.4491 36.43 64.3691 38.275 64.3691 40.255C64.3691 43.09 66.0791 46.285 72.4691 46.285H74.6741C80.5241 46.285 82.9091 43.315 82.9091 40.615C82.9091 38.365 81.2441 36.16 78.4541 36.16H68.2841ZM82.6862 13.66C82.6862 13.57 82.7312 13.525 82.7762 13.525H87.3662C87.4112 13.525 87.5012 13.57 87.5012 13.66C87.5012 13.705 87.4112 13.75 87.3662 13.75H86.6912V32.155C86.6912 33.28 87.2312 33.775 88.1312 33.775C88.8512 33.775 89.4812 33.19 89.4812 32.245C89.4812 32.065 89.7062 32.065 89.7062 32.245C89.7062 33.595 88.7612 34.18 87.5012 34.18C85.9712 34.18 85.0262 33.055 85.0262 31.21V14.92C85.0262 14.29 84.7112 13.75 84.1262 13.75H82.7762C82.7312 13.75 82.6862 13.705 82.6862 13.66ZM84.6662 4.93C84.6662 4.255 85.1612 3.805 85.8362 3.805C86.5112 3.805 86.9612 4.255 86.9612 4.93C86.9612 5.605 86.5112 6.1 85.8362 6.1C85.1612 6.1 84.6662 5.605 84.6662 4.93ZM107.153 13.975V32.155C107.153 33.01 107.648 33.775 108.548 33.775C109.268 33.775 109.898 33.19 109.898 32.245C109.898 32.155 109.943 32.11 110.033 32.11C110.078 32.11 110.168 32.155 110.168 32.245C110.168 33.595 109.178 34.135 107.918 34.135C106.388 34.135 105.488 33.055 105.488 31.21V22.3C104.408 28.375 101.438 34.225 96.6232 34.225C93.5182 34.225 90.6832 32.785 90.6832 27.565V14.875C90.6832 14.245 90.3682 13.75 89.7832 13.75H88.4332C88.2532 13.75 88.2532 13.525 88.4332 13.525H93.6982C93.8782 13.525 93.8782 13.75 93.6982 13.75H92.3482V27.7C92.3482 33.37 94.6432 33.91 96.8482 33.91C101.078 33.91 103.778 28.645 104.993 23.11C105.353 20.995 105.488 20.23 105.488 17.17V13.975C105.488 13.66 105.623 13.525 105.938 13.525H106.703C107.018 13.525 107.153 13.66 107.153 13.975ZM125.329 22.66C124.249 27.925 121.189 34.18 116.374 34.18C113.314 34.18 109.984 32.335 109.984 25.315V24.37C109.984 17.08 115.474 13.03 121.279 13.03C122.629 13.03 123.934 13.075 125.329 13.075V2.815C125.329 2.185 125.014 1.69 124.429 1.69H122.089C121.909 1.69 121.909 1.465 122.089 1.465H127.669C127.849 1.465 127.849 1.69 127.669 1.69H126.994V32.155C126.994 33.19 127.489 33.775 128.389 33.775C129.109 33.775 129.739 33.19 129.739 32.245C129.739 32.155 129.784 32.11 129.874 32.11C129.919 32.11 130.009 32.155 130.009 32.245C130.009 33.55 129.154 34.135 127.939 34.135C126.049 34.135 125.329 32.65 125.329 30.715V22.66ZM111.694 24.325V25.225C111.694 32.695 114.169 33.955 116.194 33.955H116.374C120.919 33.955 123.844 28.24 125.014 23.155C125.239 21.49 125.329 19.87 125.329 18.385V13.255H121.549C115.564 13.255 111.694 17.665 111.694 24.325ZM138.927 34.225C132.447 34.225 129.747 29.545 129.882 23.335C130.017 17.035 134.607 12.985 139.827 12.985C144.057 12.985 146.847 14.965 146.847 18.25C146.847 20.68 144.507 22.66 141.762 23.38C137.217 24.505 131.367 25.81 132.312 29.59C133.482 32.335 135.057 34 138.927 34C143.337 34 146.037 30.4 145.227 27.79C144.777 26.44 146.892 26.035 146.937 27.7C147.072 30.985 143.112 34.225 138.927 34.225ZM145.182 18.07C145.182 15.37 143.787 13.21 139.602 13.21C134.967 13.21 131.862 16.765 131.592 22.93C131.547 24.775 131.682 26.755 132.042 28.51C132.357 25.09 137.487 24.28 141.492 23.155C143.787 22.48 145.182 20.68 145.182 18.07Z"/>
</mask>
<path d="M0.836152 34C0.701152 34 0.701152 33.775 0.836152 33.775H2.68115C2.86115 33.775 2.99615 33.685 2.99615 33.46V14.065C2.99615 13.84 2.90615 13.75 2.68115 13.75H0.431152C0.386152 13.75 0.296152 13.75 0.296152 13.66C0.296152 13.57 0.386152 13.525 0.431152 13.525H2.68115C2.86115 13.525 2.99615 13.435 2.99615 13.21V11.77C2.99615 4.93 6.86615 0.744999 13.0312 1.33C15.5962 1.6 14.6512 3.49 13.1662 3.085C4.97615 0.879997 4.66115 5.335 4.66115 11.77V13.21C4.66115 13.435 4.75115 13.525 4.97615 13.525H8.12615C8.30615 13.525 8.30615 13.75 8.12615 13.75H4.97615C4.75115 13.75 4.66115 13.84 4.66115 14.065V33.46C4.66115 33.685 4.75115 33.775 4.97615 33.775H6.82115C6.95615 33.775 6.95615 34 6.82115 34H0.836152ZM23.4859 22.615C22.6759 28.51 19.3909 34.225 14.3509 34.225C11.0209 34.225 9.13092 32.29 9.13092 29.5C9.13092 24.73 14.4859 24.415 19.4359 22.795C23.1709 21.58 23.5309 20.05 23.5309 17.71C23.5309 15.595 22.0909 13.21 18.4009 13.21C14.8459 13.21 12.8209 15.505 12.8209 17.8C12.8209 18.385 13.1359 19.015 13.1359 19.555C13.1359 20.14 12.6859 20.545 12.1909 20.545C11.6059 20.545 11.1559 20.05 11.1559 18.835C11.1559 15.64 14.2609 12.985 18.4009 12.985C23.0809 12.985 25.1509 15.415 25.1509 18.115V32.155C25.1509 33.01 25.6909 33.775 26.5909 33.775C27.3109 33.775 27.9409 33.19 27.9409 32.245C27.9409 32.155 27.9859 32.11 28.0309 32.11C28.1209 32.11 28.1659 32.155 28.1659 32.245C28.1659 33.595 27.2209 34.135 25.9609 34.135C24.4309 34.135 23.4859 33.055 23.4859 31.21V22.615ZM14.6659 33.82C20.3359 33.82 23.4859 25.765 23.4859 20.005C23.1259 21.31 22.1359 22.075 19.6609 22.975C16.2409 24.19 11.0209 24.595 11.0209 29.365V29.77C11.0209 32.065 12.3709 33.82 14.6659 33.82ZM37.8381 13.21H37.5231C33.2931 13.21 29.7831 16.36 29.7831 23.335V23.83C29.7831 29.815 31.5831 34.045 37.3881 34.045C41.9331 34.045 44.1381 30.4 43.2831 27.79C42.8331 26.53 44.8581 25.99 44.9931 27.7C45.2631 30.985 41.5731 34.225 37.4331 34.225C30.8631 34.225 27.9381 29.725 27.9381 23.83V23.335C27.9381 16.495 32.9331 12.985 37.5231 12.985H37.8381C42.1581 12.985 45.2181 15.28 44.9031 18.565C44.7231 20.365 42.6531 19.735 43.1031 18.52C44.0481 15.955 42.2481 13.21 37.8381 13.21ZM55.2116 34.225C48.7316 34.225 46.0316 29.545 46.1666 23.335C46.3016 17.035 50.8916 12.985 56.1116 12.985C60.3416 12.985 63.1316 14.965 63.1316 18.25C63.1316 20.68 60.7916 22.66 58.0466 23.38C53.5016 24.505 47.6516 25.81 48.5966 29.59C49.7666 32.335 51.3416 34 55.2116 34C59.6216 34 62.3216 30.4 61.5116 27.79C61.0616 26.44 63.1766 26.035 63.2216 27.7C63.3566 30.985 59.3966 34.225 55.2116 34.225ZM61.4666 18.07C61.4666 15.37 60.0716 13.21 55.8866 13.21C51.2516 13.21 48.1466 16.765 47.8766 22.93C47.8316 24.775 47.9666 26.755 48.3266 28.51C48.6416 25.09 53.7716 24.28 57.7766 23.155C60.0716 22.48 61.4666 20.68 61.4666 18.07ZM73.5941 12.985C75.7991 12.985 77.8691 13.57 79.4441 14.65C79.1291 14.065 78.9941 13.48 78.9941 12.895C78.9941 10.645 81.1091 8.71 83.3141 8.71C84.4841 8.71 84.9341 9.16 84.9341 9.7C84.9341 10.15 84.5741 10.555 84.0341 10.555C83.5841 10.555 83.0441 10.33 82.5941 10.33C80.7941 10.33 79.3091 11.59 79.3091 13.075C79.3091 13.66 79.4891 14.335 79.8491 14.92C81.5591 16.225 82.6841 18.205 82.6841 20.905V21.31C82.6841 25.9 79.5341 29.59 73.5491 29.59C71.0741 29.59 69.1391 29.005 67.6541 27.925C65.6741 28.195 64.6391 29.77 64.6391 31.345C64.6391 32.965 65.8091 34.585 68.2391 34.585H78.4541C81.8291 34.585 83.8091 37.105 83.8091 39.85C83.8091 43.045 81.0641 46.51 74.6741 46.51H72.4691C65.6291 46.51 62.9741 43.36 62.9741 40.435C62.9741 38.365 64.2791 36.43 66.3041 35.8C64.4591 35.215 63.6041 33.73 63.6041 32.2C63.6041 30.175 65.0441 28.105 67.4291 27.79C65.4491 26.26 64.4591 23.92 64.4591 21.31V20.905C64.4591 15.91 68.7791 12.985 73.5941 12.985ZM73.5941 13.21C69.8591 13.21 66.2591 15.28 66.2591 20.905V21.31C66.2591 25.945 68.3741 29.41 73.5491 29.41C78.7241 29.41 80.8841 25.945 80.8841 21.31V20.905C80.8841 15.28 77.3741 13.21 73.5941 13.21ZM68.2841 36.16C67.7891 36.16 67.3841 36.115 66.9791 36.025C65.4491 36.43 64.3691 38.275 64.3691 40.255C64.3691 43.09 66.0791 46.285 72.4691 46.285H74.6741C80.5241 46.285 82.9091 43.315 82.9091 40.615C82.9091 38.365 81.2441 36.16 78.4541 36.16H68.2841ZM82.6862 13.66C82.6862 13.57 82.7312 13.525 82.7762 13.525H87.3662C87.4112 13.525 87.5012 13.57 87.5012 13.66C87.5012 13.705 87.4112 13.75 87.3662 13.75H86.6912V32.155C86.6912 33.28 87.2312 33.775 88.1312 33.775C88.8512 33.775 89.4812 33.19 89.4812 32.245C89.4812 32.065 89.7062 32.065 89.7062 32.245C89.7062 33.595 88.7612 34.18 87.5012 34.18C85.9712 34.18 85.0262 33.055 85.0262 31.21V14.92C85.0262 14.29 84.7112 13.75 84.1262 13.75H82.7762C82.7312 13.75 82.6862 13.705 82.6862 13.66ZM84.6662 4.93C84.6662 4.255 85.1612 3.805 85.8362 3.805C86.5112 3.805 86.9612 4.255 86.9612 4.93C86.9612 5.605 86.5112 6.1 85.8362 6.1C85.1612 6.1 84.6662 5.605 84.6662 4.93ZM107.153 13.975V32.155C107.153 33.01 107.648 33.775 108.548 33.775C109.268 33.775 109.898 33.19 109.898 32.245C109.898 32.155 109.943 32.11 110.033 32.11C110.078 32.11 110.168 32.155 110.168 32.245C110.168 33.595 109.178 34.135 107.918 34.135C106.388 34.135 105.488 33.055 105.488 31.21V22.3C104.408 28.375 101.438 34.225 96.6232 34.225C93.5182 34.225 90.6832 32.785 90.6832 27.565V14.875C90.6832 14.245 90.3682 13.75 89.7832 13.75H88.4332C88.2532 13.75 88.2532 13.525 88.4332 13.525H93.6982C93.8782 13.525 93.8782 13.75 93.6982 13.75H92.3482V27.7C92.3482 33.37 94.6432 33.91 96.8482 33.91C101.078 33.91 103.778 28.645 104.993 23.11C105.353 20.995 105.488 20.23 105.488 17.17V13.975C105.488 13.66 105.623 13.525 105.938 13.525H106.703C107.018 13.525 107.153 13.66 107.153 13.975ZM125.329 22.66C124.249 27.925 121.189 34.18 116.374 34.18C113.314 34.18 109.984 32.335 109.984 25.315V24.37C109.984 17.08 115.474 13.03 121.279 13.03C122.629 13.03 123.934 13.075 125.329 13.075V2.815C125.329 2.185 125.014 1.69 124.429 1.69H122.089C121.909 1.69 121.909 1.465 122.089 1.465H127.669C127.849 1.465 127.849 1.69 127.669 1.69H126.994V32.155C126.994 33.19 127.489 33.775 128.389 33.775C129.109 33.775 129.739 33.19 129.739 32.245C129.739 32.155 129.784 32.11 129.874 32.11C129.919 32.11 130.009 32.155 130.009 32.245C130.009 33.55 129.154 34.135 127.939 34.135C126.049 34.135 125.329 32.65 125.329 30.715V22.66ZM111.694 24.325V25.225C111.694 32.695 114.169 33.955 116.194 33.955H116.374C120.919 33.955 123.844 28.24 125.014 23.155C125.239 21.49 125.329 19.87 125.329 18.385V13.255H121.549C115.564 13.255 111.694 17.665 111.694 24.325ZM138.927 34.225C132.447 34.225 129.747 29.545 129.882 23.335C130.017 17.035 134.607 12.985 139.827 12.985C144.057 12.985 146.847 14.965 146.847 18.25C146.847 20.68 144.507 22.66 141.762 23.38C137.217 24.505 131.367 25.81 132.312 29.59C133.482 32.335 135.057 34 138.927 34C143.337 34 146.037 30.4 145.227 27.79C144.777 26.44 146.892 26.035 146.937 27.7C147.072 30.985 143.112 34.225 138.927 34.225ZM145.182 18.07C145.182 15.37 143.787 13.21 139.602 13.21C134.967 13.21 131.862 16.765 131.592 22.93C131.547 24.775 131.682 26.755 132.042 28.51C132.357 25.09 137.487 24.28 141.492 23.155C143.787 22.48 145.182 20.68 145.182 18.07Z" fill="#331E26"/>
<path d="M13.0312 1.33L13.0521 1.13109L13.05 1.13089L13.0312 1.33ZM13.1662 3.085L13.2188 2.89205L13.2181 2.89188L13.1662 3.085ZM0.836152 33.8C0.864469 33.8 0.896135 33.8146 0.916389 33.8399C0.932575 33.8601 0.934902 33.8783 0.934902 33.8875C0.934902 33.8967 0.932575 33.9149 0.916389 33.9351C0.896135 33.9604 0.864469 33.975 0.836152 33.975V33.575C0.740336 33.575 0.658045 33.6177 0.604041 33.6852C0.554105 33.7476 0.534902 33.8221 0.534902 33.8875C0.534902 33.9529 0.554105 34.0274 0.604041 34.0898C0.658045 34.1573 0.740336 34.2 0.836152 34.2V33.8ZM0.836152 33.975H2.68115V33.575H0.836152V33.975ZM2.68115 33.975C2.80163 33.975 2.93498 33.945 3.03995 33.8505C3.1487 33.7527 3.19615 33.6136 3.19615 33.46H2.79615C2.79615 33.5314 2.77611 33.5498 2.77236 33.5532C2.76482 33.56 2.74068 33.575 2.68115 33.575V33.975ZM3.19615 33.46V14.065H2.79615V33.46H3.19615ZM3.19615 14.065C3.19615 13.9328 3.17093 13.7882 3.06445 13.6817C2.95797 13.5752 2.81338 13.55 2.68115 13.55V13.95C2.77393 13.95 2.78684 13.9698 2.78161 13.9645C2.77637 13.9593 2.79615 13.9722 2.79615 14.065H3.19615ZM2.68115 13.55H0.431152V13.95H2.68115V13.55ZM0.431152 13.55C0.419193 13.55 0.414077 13.5499 0.410036 13.5495C0.405678 13.5491 0.410882 13.549 0.421056 13.5531C0.43238 13.5576 0.454536 13.5693 0.473054 13.5949C0.492477 13.6218 0.496152 13.6477 0.496152 13.66H0.0961524C0.0961524 13.7173 0.111078 13.7769 0.148782 13.8291C0.185581 13.8801 0.23305 13.9087 0.272499 13.9244C0.3423 13.9524 0.415449 13.95 0.431152 13.95V13.55ZM0.496152 13.66C0.496152 13.6722 0.492798 13.6851 0.486776 13.6962C0.481258 13.7064 0.475116 13.7122 0.471716 13.7149C0.468471 13.7175 0.465548 13.7191 0.462273 13.7203C0.460459 13.721 0.450054 13.725 0.431152 13.725V13.325C0.356005 13.325 0.279333 13.3566 0.221839 13.4026C0.15801 13.4536 0.0961524 13.5406 0.0961524 13.66H0.496152ZM0.431152 13.725H2.68115V13.325H0.431152V13.725ZM2.68115 13.725C2.80163 13.725 2.93498 13.695 3.03995 13.6005C3.1487 13.5027 3.19615 13.3636 3.19615 13.21H2.79615C2.79615 13.2814 2.77611 13.2998 2.77236 13.3032C2.76482 13.31 2.74068 13.325 2.68115 13.325V13.725ZM3.19615 13.21V11.77H2.79615V13.21H3.19615ZM3.19615 11.77C3.19615 8.38568 4.15341 5.68443 5.84672 3.90343C7.53638 2.12628 9.98141 1.24151 13.0123 1.52911L13.05 1.13089C9.9159 0.833493 7.34342 1.74872 5.55683 3.62782C3.7739 5.50307 2.79615 8.31432 2.79615 11.77H3.19615ZM13.0102 1.5289C13.6305 1.5942 14.008 1.75494 14.2146 1.9283C14.4141 2.09564 14.4545 2.27161 14.4222 2.41724C14.3531 2.72809 13.8871 3.0743 13.2188 2.89205L13.1135 3.27795C13.9302 3.50069 14.6792 3.10441 14.8126 2.50401C14.8815 2.19401 14.7701 1.87217 14.4717 1.62186C14.1805 1.37756 13.7143 1.2008 13.0521 1.1311L13.0102 1.5289ZM13.2181 2.89188C11.1577 2.33715 9.56984 2.19452 8.34739 2.40991C7.11539 2.62697 6.2595 3.20725 5.67634 4.07603C5.09928 4.93574 4.79879 6.06371 4.63982 7.36385C4.48065 8.66564 4.46115 10.1621 4.46115 11.77H4.86115C4.86115 10.1604 4.88103 8.68685 5.03686 7.4124C5.19289 6.13629 5.48303 5.08176 6.00846 4.29896C6.52781 3.52524 7.28629 3.00302 8.41679 2.80384C9.55684 2.60297 11.0796 2.73035 13.1142 3.27812L13.2181 2.89188ZM4.46115 11.77V13.21H4.86115V11.77H4.46115ZM4.46115 13.21C4.46115 13.3422 4.48637 13.4868 4.59286 13.5933C4.69934 13.6998 4.84393 13.725 4.97615 13.725V13.325C4.88338 13.325 4.87047 13.3052 4.8757 13.3105C4.88093 13.3157 4.86115 13.3028 4.86115 13.21H4.46115ZM4.97615 13.725H8.12615V13.325H4.97615V13.725ZM8.12615 13.725C8.12834 13.725 8.11063 13.7248 8.09061 13.7061C8.07162 13.6883 8.06115 13.663 8.06115 13.6375C8.06115 13.612 8.07162 13.5867 8.09061 13.5689C8.11063 13.5502 8.12834 13.55 8.12615 13.55V13.95C8.21397 13.95 8.29917 13.9217 8.36419 13.8608C8.42819 13.8008 8.46115 13.7193 8.46115 13.6375C8.46115 13.5557 8.42819 13.4742 8.36419 13.4142C8.29917 13.3533 8.21397 13.325 8.12615 13.325V13.725ZM8.12615 13.55H4.97615V13.95H8.12615V13.55ZM4.97615 13.55C4.84393 13.55 4.69934 13.5752 4.59286 13.6817C4.48637 13.7882 4.46115 13.9328 4.46115 14.065H4.86115C4.86115 13.9722 4.88093 13.9593 4.8757 13.9645C4.87047 13.9698 4.88338 13.95 4.97615 13.95V13.55ZM4.46115 14.065V33.46H4.86115V14.065H4.46115ZM4.46115 33.46C4.46115 33.5922 4.48637 33.7368 4.59286 33.8433C4.69934 33.9498 4.84393 33.975 4.97615 33.975V33.575C4.88338 33.575 4.87047 33.5552 4.8757 33.5605C4.88093 33.5657 4.86115 33.5528 4.86115 33.46H4.46115ZM4.97615 33.975H6.82115V33.575H4.97615V33.975ZM6.82115 33.975C6.79284 33.975 6.76117 33.9604 6.74092 33.9351C6.72473 33.9149 6.7224 33.8967 6.7224 33.8875C6.7224 33.8783 6.72473 33.8601 6.74092 33.8399C6.76117 33.8146 6.79284 33.8 6.82115 33.8V34.2C6.91697 34.2 6.99926 34.1573 7.05326 34.0898C7.1032 34.0274 7.1224 33.9529 7.1224 33.8875C7.1224 33.8221 7.1032 33.7476 7.05326 33.6852C6.99926 33.6177 6.91697 33.575 6.82115 33.575V33.975ZM6.82115 33.8H0.836152V34.2H6.82115V33.8ZM23.4859 22.615H23.6859L23.2878 22.5878L23.4859 22.615ZM19.4359 22.795L19.374 22.6048L19.3737 22.6049L19.4359 22.795ZM23.4859 20.005H23.6859L23.2931 19.9518L23.4859 20.005ZM19.6609 22.975L19.7279 23.1635L19.7293 23.163L19.6609 22.975ZM23.2878 22.5878C22.8861 25.511 21.8715 28.3807 20.3421 30.5141C18.8135 32.6464 16.7861 34.025 14.3509 34.025V34.425C16.9558 34.425 19.0909 32.9461 20.6672 30.7472C22.2428 28.5493 23.2757 25.614 23.6841 22.6422L23.2878 22.5878ZM14.3509 34.025C12.7244 34.025 11.4725 33.553 10.6289 32.7628C9.78645 31.9737 9.33092 30.8484 9.33092 29.5H8.93092C8.93092 30.9416 9.42039 32.1788 10.3554 33.0547C11.2894 33.9295 12.6475 34.425 14.3509 34.425V34.025ZM9.33092 29.5C9.33092 28.3485 9.65281 27.4795 10.2013 26.7926C10.7531 26.1014 11.5456 25.5806 12.509 25.1488C13.4726 24.7168 14.5931 24.3798 15.7909 24.0481C16.984 23.7176 18.2548 23.392 19.4981 22.9851L19.3737 22.6049C18.142 23.008 16.8872 23.3293 15.6841 23.6626C14.4856 23.9946 13.3392 24.3382 12.3454 24.7837C11.3512 25.2294 10.4956 25.7829 9.88869 26.543C9.27841 27.3074 8.93092 28.2665 8.93092 29.5H9.33092ZM19.4978 22.9852C21.3819 22.3723 22.4563 21.6675 23.0499 20.7861C23.6432 19.9052 23.7309 18.8833 23.7309 17.71H23.3309C23.3309 18.8767 23.2387 19.7898 22.7182 20.5627C22.198 21.3349 21.2249 22.0027 19.3741 22.6048L19.4978 22.9852ZM23.7309 17.71C23.7309 16.609 23.3563 15.432 22.4944 14.5288C21.6295 13.6225 20.2915 13.01 18.4009 13.01V13.41C20.2004 13.41 21.4273 13.99 22.205 14.8049C22.9856 15.623 23.3309 16.696 23.3309 17.71H23.7309ZM18.4009 13.01C14.7546 13.01 12.6209 15.3763 12.6209 17.8H13.0209C13.0209 15.6337 14.9372 13.41 18.4009 13.41V13.01ZM12.6209 17.8C12.6209 18.1229 12.7075 18.452 12.7851 18.7455C12.8658 19.0512 12.9359 19.3163 12.9359 19.555H13.3359C13.3359 19.2537 13.2485 18.9338 13.1718 18.6433C13.0918 18.3405 13.0209 18.0621 13.0209 17.8H12.6209ZM12.9359 19.555C12.9359 20.0295 12.5755 20.345 12.1909 20.345V20.745C12.7964 20.745 13.3359 20.2505 13.3359 19.555H12.9359ZM12.1909 20.345C11.9634 20.345 11.7675 20.253 11.6199 20.0339C11.4655 19.8046 11.3559 19.4225 11.3559 18.835H10.9559C10.9559 19.4625 11.0713 19.9354 11.2882 20.2573C11.5118 20.5895 11.8335 20.745 12.1909 20.745V20.345ZM11.3559 18.835C11.3559 15.7854 14.3329 13.185 18.4009 13.185V12.785C14.189 12.785 10.9559 15.4946 10.9559 18.835H11.3559ZM18.4009 13.185C20.7075 13.185 22.3441 13.7836 23.4008 14.6894C24.4553 15.5932 24.9509 16.8184 24.9509 18.115H25.3509C25.3509 16.7116 24.8116 15.3718 23.6611 14.3856C22.5127 13.4014 20.7743 12.785 18.4009 12.785V13.185ZM24.9509 18.115V32.155H25.3509V18.115H24.9509ZM24.9509 32.155C24.9509 33.084 25.5472 33.975 26.5909 33.975V33.575C25.8346 33.575 25.3509 32.936 25.3509 32.155H24.9509ZM26.5909 33.975C27.4336 33.975 28.1409 33.2878 28.1409 32.245H27.7409C27.7409 33.0922 27.1882 33.575 26.5909 33.575V33.975ZM28.1409 32.245C28.1409 32.232 28.1442 32.2436 28.129 32.2638C28.113 32.2852 28.079 32.31 28.0309 32.31V31.91C27.8259 31.91 27.7409 32.1017 27.7409 32.245H28.1409ZM28.0309 32.31C28.0451 32.31 28.019 32.3134 27.9907 32.2852C27.9625 32.2569 27.9659 32.2308 27.9659 32.245H28.3659C28.3659 32.1692 28.3468 32.0756 28.2736 32.0023C28.2004 31.9291 28.1067 31.91 28.0309 31.91V32.31ZM27.9659 32.245C27.9659 32.8684 27.7508 33.2779 27.4138 33.5379C27.0681 33.8045 26.5668 33.935 25.9609 33.935V34.335C26.6151 34.335 27.2162 34.1955 27.6581 33.8546C28.1086 33.5071 28.3659 32.9716 28.3659 32.245H27.9659ZM25.9609 33.935C25.2461 33.935 24.6862 33.6847 24.3018 33.2345C23.9139 32.7803 23.6859 32.1004 23.6859 31.21H23.2859C23.2859 32.1646 23.5304 32.9472 23.9976 33.4943C24.4681 34.0453 25.1457 34.335 25.9609 34.335V33.935ZM23.6859 31.21V22.615H23.2859V31.21H23.6859ZM14.6659 34.02C17.6082 34.02 19.8665 31.9294 21.3776 29.1685C22.8913 26.403 23.6859 22.9158 23.6859 20.005H23.2859C23.2859 22.8542 22.5056 26.2745 21.0267 28.9765C19.5453 31.6831 17.3937 33.62 14.6659 33.62V34.02ZM23.2931 19.9518C22.9614 21.1544 22.0606 21.8896 19.5926 22.787L19.7293 23.163C22.2112 22.2604 23.2905 21.4656 23.6787 20.0582L23.2931 19.9518ZM19.594 22.7865C18.7462 23.0877 17.7903 23.3376 16.812 23.6233C15.84 23.9071 14.853 24.2246 13.9704 24.6573C13.0872 25.0903 12.2979 25.6437 11.7297 26.4055C11.159 27.1706 10.8209 28.133 10.8209 29.365H11.2209C11.2209 28.212 11.5353 27.3351 12.0503 26.6447C12.5677 25.951 13.2971 25.4329 14.1465 25.0165C14.9964 24.5998 15.9556 24.2901 16.9242 24.0072C17.8866 23.7262 18.8657 23.4698 19.7279 23.1635L19.594 22.7865ZM10.8209 29.365V29.77H11.2209V29.365H10.8209ZM10.8209 29.77C10.8209 30.9554 11.1697 32.0173 11.8312 32.7861C12.4956 33.5582 13.4633 34.02 14.6659 34.02V33.62C13.5735 33.62 12.7188 33.2043 12.1344 32.5252C11.5472 31.8427 11.2209 30.8796 11.2209 29.77H10.8209ZM43.2831 27.79L43.4732 27.7277L43.4715 27.7227L43.2831 27.79ZM44.9931 27.7L44.7937 27.7157L44.7938 27.7164L44.9931 27.7ZM44.9031 18.565L45.1021 18.5849L45.1022 18.5841L44.9031 18.565ZM43.1031 18.52L43.2907 18.5895L43.2908 18.5891L43.1031 18.52ZM37.8381 13.01H37.5231V13.41H37.8381V13.01ZM37.5231 13.01C35.3558 13.01 33.3625 13.8187 31.9143 15.5276C30.4687 17.2334 29.5831 19.8157 29.5831 23.335H29.9831C29.9831 19.8793 30.8525 17.3991 32.2194 15.7862C33.5837 14.1763 35.4604 13.41 37.5231 13.41V13.01ZM29.5831 23.335V23.83H29.9831V23.335H29.5831ZM29.5831 23.83C29.5831 26.8353 30.0336 29.4364 31.2411 31.291C32.4593 33.162 34.429 34.245 37.3881 34.245V33.845C34.5422 33.845 32.7094 32.813 31.5763 31.0728C30.4326 29.3161 29.9831 26.8097 29.9831 23.83H29.5831ZM37.3881 34.245C42.042 34.245 44.3786 30.4918 43.4732 27.7277L43.093 27.8523C43.8976 30.3082 41.8242 33.845 37.3881 33.845V34.245ZM43.4715 27.7227C43.3779 27.4608 43.4175 27.2562 43.5099 27.1117C43.6055 26.9623 43.7692 26.8593 43.952 26.8285C44.133 26.7979 44.324 26.8396 44.4768 26.9684C44.6287 27.0965 44.7632 27.3285 44.7937 27.7157L45.1925 27.6843C45.1556 27.2165 44.9863 26.8748 44.7346 26.6626C44.4838 26.451 44.1713 26.3858 43.8855 26.434C43.6014 26.482 43.3347 26.6433 43.173 26.8961C43.0081 27.1538 42.9633 27.4892 43.0948 27.8573L43.4715 27.7227ZM44.7938 27.7164C44.9221 29.277 44.1097 30.8507 42.7358 32.0433C41.3638 33.2342 39.4523 34.025 37.4331 34.025V34.425C39.5539 34.425 41.5574 33.5958 42.998 32.3454C44.4365 31.0968 45.3342 29.408 45.1924 27.6836L44.7938 27.7164ZM37.4331 34.025C34.1975 34.025 31.884 32.9192 30.3755 31.11C28.8621 29.2952 28.1381 26.7474 28.1381 23.83H27.7381C27.7381 26.8076 28.4766 29.4573 30.0682 31.3662C31.6647 33.2808 34.0987 34.425 37.4331 34.425V34.025ZM28.1381 23.83V23.335H27.7381V23.83H28.1381ZM28.1381 23.335C28.1381 16.6149 33.0339 13.185 37.5231 13.185V12.785C32.8323 12.785 27.7381 16.3751 27.7381 23.335H28.1381ZM37.5231 13.185H37.8381V12.785H37.5231V13.185ZM37.8381 13.185C39.9654 13.185 41.7637 13.7504 42.9859 14.701C44.203 15.6476 44.8543 16.9782 44.704 18.5459L45.1022 18.5841C45.2669 16.8668 44.5457 15.4074 43.2315 14.3853C41.9225 13.3671 40.0308 12.785 37.8381 12.785V13.185ZM44.7041 18.5451C44.663 18.9561 44.5176 19.2001 44.3554 19.3339C44.1927 19.4681 43.9917 19.5093 43.8012 19.4761C43.6086 19.4425 43.4366 19.3343 43.336 19.1823C43.239 19.0359 43.1994 18.8358 43.2907 18.5895L42.9156 18.4505C42.7818 18.8117 42.8322 19.146 43.0024 19.4031C43.169 19.6548 43.4414 19.8194 43.7325 19.8701C44.0258 19.9213 44.3479 19.8585 44.6099 19.6425C44.8723 19.4261 45.0532 19.0739 45.1021 18.5849L44.7041 18.5451ZM43.2908 18.5891C43.7869 17.2425 43.5637 15.8368 42.6291 14.7712C41.6974 13.709 40.0824 13.01 37.8381 13.01V13.41C40.0038 13.41 41.4938 14.0835 42.3284 15.035C43.16 15.9832 43.3643 17.2325 42.9154 18.4509L43.2908 18.5891ZM46.1666 23.335L46.3666 23.3393V23.3393L46.1666 23.335ZM58.0466 23.38L58.0947 23.5742L58.0974 23.5735L58.0466 23.38ZM48.5966 29.59L48.4026 29.6385L48.4064 29.6539L48.4126 29.6684L48.5966 29.59ZM61.5116 27.79L61.7027 27.7307L61.7014 27.7268L61.5116 27.79ZM63.2216 27.7L63.0217 27.7054L63.0218 27.7082L63.2216 27.7ZM47.8766 22.93L47.6768 22.9212L47.6767 22.9251L47.8766 22.93ZM48.3266 28.51L48.1307 28.5502L48.5258 28.5283L48.3266 28.51ZM57.7766 23.155L57.8307 23.3476L57.8331 23.3469L57.7766 23.155ZM55.2116 34.025C52.0251 34.025 49.7932 32.8775 48.3682 30.9883C46.9367 29.0907 46.2996 26.4185 46.3666 23.3393L45.9667 23.3307C45.8986 26.4615 46.544 29.2343 48.0488 31.2292C49.56 33.2325 51.9182 34.425 55.2116 34.425V34.025ZM46.3666 23.3393C46.4993 17.1458 51.0027 13.185 56.1116 13.185V12.785C50.7806 12.785 46.104 16.9242 45.9667 23.3307L46.3666 23.3393ZM56.1116 13.185C58.1983 13.185 59.9073 13.6737 61.0891 14.5465C62.2645 15.4146 62.9316 16.6713 62.9316 18.25H63.3316C63.3316 16.5437 62.6037 15.1679 61.3267 14.2247C60.056 13.2863 58.2549 12.785 56.1116 12.785V13.185ZM62.9316 18.25C62.9316 19.3969 62.3799 20.4502 61.4802 21.3118C60.58 22.1738 59.3404 22.8339 57.9959 23.1865L58.0974 23.5735C59.4979 23.2061 60.8008 22.5162 61.7568 21.6007C62.7134 20.6847 63.3316 19.5331 63.3316 18.25H62.9316ZM57.9986 23.1859C55.7354 23.746 53.1112 24.3587 51.1747 25.3099C50.2055 25.7859 49.3876 26.3563 48.8734 27.0658C48.3527 27.7845 48.1518 28.6354 48.4026 29.6385L48.7906 29.5415C48.5689 28.6546 48.745 27.9248 49.1973 27.3006C49.6563 26.6671 50.4077 26.1322 51.351 25.6689C53.2396 24.7413 55.8128 24.139 58.0947 23.5741L57.9986 23.1859ZM48.4126 29.6684C49.0036 31.0549 49.7074 32.195 50.7725 32.985C51.8403 33.7771 53.2475 34.2 55.2116 34.2V33.8C53.3057 33.8 51.9904 33.3904 51.0108 32.6637C50.0283 31.935 49.3596 30.8701 48.7806 29.5116L48.4126 29.6684ZM55.2116 34.2C57.4726 34.2 59.3036 33.2765 60.4665 32.009C61.625 30.7462 62.1344 29.1221 61.7026 27.7307L61.3206 27.8493C61.6988 29.0679 61.2633 30.5488 60.1717 31.7385C59.0846 32.9235 57.3606 33.8 55.2116 33.8V34.2ZM61.7014 27.7268C61.6058 27.4402 61.6519 27.2277 61.7486 27.0839C61.8486 26.9351 62.018 26.8371 62.2067 26.8127C62.3942 26.7885 62.5894 26.8384 62.7395 26.9715C62.8877 27.1028 63.0116 27.3329 63.0217 27.7054L63.4215 27.6946C63.4091 27.2346 63.2518 26.8909 63.0048 26.6721C62.7598 26.455 62.446 26.3784 62.1553 26.416C61.8659 26.4535 61.5881 26.6058 61.4167 26.8607C61.242 27.1204 61.1924 27.4648 61.3219 27.8532L61.7014 27.7268ZM63.0218 27.7082C63.0858 29.2667 62.1767 30.843 60.7102 32.0394C59.2468 33.2333 57.2545 34.025 55.2116 34.025V34.425C57.3538 34.425 59.434 33.5967 60.963 32.3493C62.489 31.1045 63.4924 29.4183 63.4215 27.6918L63.0218 27.7082ZM61.6666 18.07C61.6666 16.6878 61.3093 15.4139 60.3879 14.4865C59.466 13.5587 58.0117 13.01 55.8866 13.01V13.41C57.9466 13.41 59.2822 13.9413 60.1041 14.7685C60.9264 15.5961 61.2666 16.7522 61.2666 18.07H61.6666ZM55.8866 13.01C53.5132 13.01 51.5208 13.9225 50.0914 15.6297C48.6658 17.3324 47.8131 19.8092 47.6768 22.9212L48.0764 22.9388C48.2101 19.8858 49.0449 17.5026 50.3981 15.8865C51.7474 14.275 53.625 13.41 55.8866 13.41V13.01ZM47.6767 22.9251C47.6314 24.7819 47.7671 26.7774 48.1307 28.5502L48.5225 28.4698C48.1662 26.7326 48.0318 24.7681 48.0766 22.9349L47.6767 22.9251ZM48.5258 28.5283C48.6725 26.9357 49.9374 25.9207 51.7458 25.1561C53.5528 24.392 55.8087 23.9155 57.8307 23.3475L57.7225 22.9625C55.7396 23.5195 53.4279 24.0105 51.59 24.7877C49.7533 25.5643 48.2958 26.6643 48.1275 28.4917L48.5258 28.5283ZM57.8331 23.3469C59.0171 22.9986 59.9785 22.3569 60.6431 21.4569C61.3077 20.5571 61.6666 19.4114 61.6666 18.07H61.2666C61.2666 19.3386 60.928 20.3979 60.3214 21.2193C59.7148 22.0406 58.8312 22.6364 57.7202 22.9631L57.8331 23.3469ZM79.4441 14.65L79.331 14.8149L79.6202 14.5552L79.4441 14.65ZM79.8491 14.92L79.6788 15.0248L79.6983 15.0565L79.7278 15.079L79.8491 14.92ZM67.6541 27.925L67.7718 27.7633L67.7067 27.716L67.6271 27.7268L67.6541 27.925ZM66.3041 35.8L66.3635 35.991L66.9715 35.8018L66.3646 35.6094L66.3041 35.8ZM67.4291 27.79L67.4553 27.9883L67.9314 27.9254L67.5514 27.6317L67.4291 27.79ZM66.9791 36.025L67.0225 35.8298L66.975 35.8192L66.9279 35.8317L66.9791 36.025ZM73.5941 13.185C75.7656 13.185 77.7946 13.7614 79.331 14.8149L79.5572 14.4851C77.9437 13.3786 75.8326 12.785 73.5941 12.785V13.185ZM79.6202 14.5552C79.3212 13.9998 79.1941 13.4475 79.1941 12.895H78.7941C78.7941 13.5125 78.9371 14.1302 79.268 14.7448L79.6202 14.5552ZM79.1941 12.895C79.1941 10.7648 81.21 8.91 83.3141 8.91V8.51C81.0082 8.51 78.7941 10.5252 78.7941 12.895H79.1941ZM83.3141 8.91C83.8779 8.91 84.2366 9.01913 84.4487 9.16668C84.6516 9.30787 84.7341 9.49293 84.7341 9.7H85.1341C85.1341 9.36707 84.9916 9.05713 84.6771 8.83832C84.3717 8.62587 83.9203 8.51 83.3141 8.51V8.91ZM84.7341 9.7C84.7341 10.0395 84.4637 10.355 84.0341 10.355V10.755C84.6846 10.755 85.1341 10.2605 85.1341 9.7H84.7341ZM84.0341 10.355C83.8359 10.355 83.6117 10.305 83.3584 10.2475C83.1167 10.1925 82.8459 10.13 82.5941 10.13V10.53C82.7923 10.53 83.0166 10.58 83.2698 10.6375C83.5116 10.6925 83.7823 10.755 84.0341 10.755V10.355ZM82.5941 10.13C80.7178 10.13 79.1091 11.4482 79.1091 13.075H79.5091C79.5091 11.7318 80.8704 10.53 82.5941 10.53V10.13ZM79.1091 13.075C79.1091 13.6977 79.2998 14.4089 79.6788 15.0248L80.0195 14.8152C79.6785 14.2611 79.5091 13.6223 79.5091 13.075H79.1091ZM79.7278 15.079C81.3887 16.3465 82.4841 18.2679 82.4841 20.905H82.8841C82.8841 18.1421 81.7296 16.1035 79.9705 14.761L79.7278 15.079ZM82.4841 20.905V21.31H82.8841V20.905H82.4841ZM82.4841 21.31C82.4841 23.5586 81.7133 25.5744 80.2214 27.028C78.7299 28.4813 76.4997 29.39 73.5491 29.39V29.79C76.5835 29.79 78.9209 28.8537 80.5006 27.3145C82.0799 25.7756 82.8841 23.6514 82.8841 21.31H82.4841ZM73.5491 29.39C71.1062 29.39 69.2151 28.813 67.7718 27.7633L67.5365 28.0867C69.0631 29.197 71.0421 29.79 73.5491 29.79V29.39ZM67.6271 27.7268C65.5355 28.012 64.4391 29.6831 64.4391 31.345H64.8391C64.8391 29.8569 65.8127 28.378 67.6811 28.1232L67.6271 27.7268ZM64.4391 31.345C64.4391 32.2024 64.7488 33.0643 65.3851 33.7126C66.0236 34.3631 66.9774 34.785 68.2391 34.785V34.385C67.0709 34.385 66.2247 33.9969 65.6706 33.4324C65.1144 32.8657 64.8391 32.1076 64.8391 31.345H64.4391ZM68.2391 34.785H78.4541V34.385H68.2391V34.785ZM78.4541 34.785C81.7076 34.785 83.6091 37.2041 83.6091 39.85H84.0091C84.0091 37.0059 81.9506 34.385 78.4541 34.385V34.785ZM83.6091 39.85C83.6091 41.389 82.9485 42.9983 81.5081 44.2259C80.0674 45.4538 77.8334 46.31 74.6741 46.31V46.71C77.9049 46.71 80.2383 45.8337 81.7676 44.5303C83.2972 43.2267 84.0091 41.506 84.0091 39.85H83.6091ZM74.6741 46.31H72.4691V46.71H74.6741V46.31ZM72.4691 46.31C69.0776 46.31 66.7511 45.5289 65.2776 44.4101C63.8073 43.2937 63.1741 41.8333 63.1741 40.435H62.7741C62.7741 41.9617 63.4685 43.5388 65.0357 44.7287C66.5996 45.9161 69.0206 46.71 72.4691 46.71V46.31ZM63.1741 40.435C63.1741 38.4458 64.4285 36.593 66.3635 35.991L66.2447 35.609C64.1298 36.267 62.7741 38.2842 62.7741 40.435H63.1741ZM66.3646 35.6094C64.6094 35.0528 63.8041 33.6501 63.8041 32.2H63.4041C63.4041 33.8099 64.3088 35.3772 66.2437 35.9906L66.3646 35.6094ZM63.8041 32.2C63.8041 30.2618 65.1827 28.2884 67.4553 27.9883L67.4029 27.5917C64.9056 27.9216 63.4041 30.0882 63.4041 32.2H63.8041ZM67.5514 27.6317C65.6282 26.1457 64.6591 23.8687 64.6591 21.31H64.2591C64.2591 23.9713 65.27 26.3743 67.3068 27.9483L67.5514 27.6317ZM64.6591 21.31V20.905H64.2591V21.31H64.6591ZM64.6591 20.905C64.6591 16.0586 68.8471 13.185 73.5941 13.185V12.785C68.7111 12.785 64.2591 15.7614 64.2591 20.905H64.6591ZM73.5941 13.01C71.6922 13.01 69.806 13.5369 68.3928 14.7989C66.9753 16.0647 66.0591 18.0474 66.0591 20.905H66.4591C66.4591 18.1376 67.3429 16.2728 68.6592 15.0973C69.9798 13.9181 71.761 13.41 73.5941 13.41V13.01ZM66.0591 20.905V21.31H66.4591V20.905H66.0591ZM66.0591 21.31C66.0591 23.6541 66.5935 25.7304 67.8083 27.2243C69.0289 28.7252 70.9133 29.61 73.5491 29.61V29.21C71.0099 29.21 69.2494 28.3623 68.1187 26.9719C66.9823 25.5746 66.4591 23.6009 66.4591 21.31H66.0591ZM73.5491 29.61C76.1848 29.61 78.0801 28.7253 79.3118 27.225C80.5381 25.7314 81.0841 23.6549 81.0841 21.31H80.6841C80.6841 23.6001 80.1501 25.5736 79.0027 26.9712C77.8606 28.3622 76.0884 29.21 73.5491 29.21V29.61ZM81.0841 21.31V20.905H80.6841V21.31H81.0841ZM81.0841 20.905C81.0841 18.049 80.1915 16.0662 78.7908 14.7998C77.3939 13.5368 75.5182 13.01 73.5941 13.01V13.41C75.4501 13.41 77.2193 13.9182 78.5225 15.0965C79.8218 16.2713 80.6841 18.136 80.6841 20.905H81.0841ZM68.2841 35.96C67.8025 35.96 67.4121 35.9163 67.0225 35.8298L66.9357 36.2202C67.3561 36.3137 67.7757 36.36 68.2841 36.36V35.96ZM66.9279 35.8317C66.1005 36.0507 65.41 36.6544 64.9294 37.4455C64.4483 38.2376 64.1691 39.2301 64.1691 40.255H64.5691C64.5691 39.2999 64.8299 38.3799 65.2713 37.6532C65.7132 36.9256 66.3277 36.4043 67.0303 36.2183L66.9279 35.8317ZM64.1691 40.255C64.1691 41.7119 64.6092 43.2783 65.8859 44.4788C67.1614 45.6783 69.2428 46.485 72.4691 46.485V46.085C69.3054 46.085 67.3369 45.2942 66.1599 44.1874C64.9841 43.0817 64.5691 41.6331 64.5691 40.255H64.1691ZM72.4691 46.485H74.6741V46.085H72.4691V46.485ZM74.6741 46.485C77.6318 46.485 79.7393 45.734 81.1116 44.6176C82.4852 43.5001 83.1091 42.0259 83.1091 40.615H82.7091C82.7091 41.9041 82.1405 43.2649 80.8592 44.3074C79.5764 45.351 77.5664 46.085 74.6741 46.085V46.485ZM83.1091 40.615C83.1091 38.2708 81.3702 35.96 78.4541 35.96V36.36C81.1181 36.36 82.7091 38.4592 82.7091 40.615H83.1091ZM78.4541 35.96H68.2841V36.36H78.4541V35.96ZM86.6912 13.75V13.55H86.4912V13.75H86.6912ZM82.8862 13.66C82.8862 13.647 82.8895 13.6586 82.8744 13.6787C82.8583 13.7002 82.8243 13.725 82.7762 13.725V13.325C82.5712 13.325 82.4862 13.5167 82.4862 13.66H82.8862ZM82.7762 13.725H87.3662V13.325H82.7762V13.725ZM87.3662 13.725C87.3473 13.725 87.3369 13.721 87.3351 13.7203C87.3318 13.7191 87.3289 13.7175 87.3257 13.7149C87.3223 13.7122 87.3161 13.7064 87.3106 13.6962C87.3046 13.6851 87.3012 13.6722 87.3012 13.66H87.7012C87.7012 13.5406 87.6394 13.4536 87.5755 13.4026C87.5181 13.3566 87.4414 13.325 87.3662 13.325V13.725ZM87.3012 13.66C87.3012 13.6041 87.3282 13.5703 87.3353 13.5621C87.3442 13.5518 87.3501 13.549 87.3477 13.5504C87.3464 13.5512 87.3442 13.5521 87.3431 13.5525C87.3398 13.5536 87.3483 13.55 87.3662 13.55V13.95C87.4379 13.95 87.5077 13.9209 87.5535 13.8934C87.5793 13.8779 87.6105 13.8553 87.6376 13.824C87.663 13.7947 87.7012 13.7384 87.7012 13.66H87.3012ZM87.3662 13.55H86.6912V13.95H87.3662V13.55ZM86.4912 13.75V32.155H86.8912V13.75H86.4912ZM86.4912 32.155C86.4912 32.7464 86.633 33.2088 86.9277 33.5236C87.2246 33.8406 87.6454 33.975 88.1312 33.975V33.575C87.7171 33.575 87.4179 33.4618 87.2197 33.2502C87.0194 33.0362 86.8912 32.6886 86.8912 32.155H86.4912ZM88.1312 33.975C88.9739 33.975 89.6812 33.2878 89.6812 32.245H89.2812C89.2812 33.0922 88.7286 33.575 88.1312 33.575V33.975ZM89.6812 32.245C89.6812 32.2428 89.6811 32.2605 89.6623 32.2805C89.6445 32.2995 89.6193 32.31 89.5937 32.31C89.5682 32.31 89.543 32.2995 89.5252 32.2805C89.5064 32.2605 89.5062 32.2428 89.5062 32.245H89.9062C89.9062 32.1572 89.8779 32.072 89.817 32.007C89.757 31.943 89.6755 31.91 89.5937 31.91C89.5119 31.91 89.4305 31.943 89.3705 32.007C89.3095 32.072 89.2812 32.1572 89.2812 32.245H89.6812ZM89.5062 32.245C89.5062 32.8688 89.2906 33.2911 88.9513 33.5626C88.6049 33.8397 88.1039 33.98 87.5012 33.98V34.38C88.1586 34.38 88.76 34.2278 89.2012 33.8749C89.6494 33.5164 89.9062 32.9712 89.9062 32.245H89.5062ZM87.5012 33.98C86.7891 33.98 86.2291 33.7204 85.8435 33.2587C85.4543 32.7927 85.2262 32.1004 85.2262 31.21H84.8262C84.8262 32.1646 85.0707 32.9573 85.5365 33.5151C86.0059 34.0771 86.6833 34.38 87.5012 34.38V33.98ZM85.2262 31.21V14.92H84.8262V31.21H85.2262ZM85.2262 14.92C85.2262 14.5747 85.1403 14.2386 84.9586 13.9829C84.7727 13.7212 84.4892 13.55 84.1262 13.55V13.95C84.3483 13.95 84.5148 14.0488 84.6326 14.2146C84.7546 14.3864 84.8262 14.6353 84.8262 14.92H85.2262ZM84.1262 13.55H82.7762V13.95H84.1262V13.55ZM82.7762 13.55C82.8188 13.55 82.8446 13.5693 82.8558 13.5805C82.867 13.5916 82.8862 13.6175 82.8862 13.66H82.4862C82.4862 13.7475 82.528 13.8184 82.5729 13.8633C82.6179 13.9082 82.6887 13.95 82.7762 13.95V13.55ZM84.8662 4.93C84.8662 4.64367 84.97 4.41623 85.1355 4.25967C85.3021 4.10208 85.5435 4.005 85.8362 4.005V3.605C85.454 3.605 85.1103 3.73292 84.8607 3.96908C84.6099 4.20626 84.4662 4.54133 84.4662 4.93H84.8662ZM85.8362 4.005C86.1283 4.005 86.3561 4.10148 86.5104 4.2558C86.6648 4.41011 86.7612 4.63795 86.7612 4.93H87.1612C87.1612 4.54705 87.0327 4.21238 86.7933 3.97295C86.5538 3.73352 86.2192 3.605 85.8362 3.605V4.005ZM86.7612 4.93C86.7612 5.22277 86.6641 5.46409 86.5066 5.63068C86.35 5.7962 86.1226 5.9 85.8362 5.9V6.3C86.2249 6.3 86.56 6.1563 86.7971 5.90556C87.0333 5.6559 87.1612 5.31223 87.1612 4.93H86.7612ZM85.8362 5.9C85.2717 5.9 84.8662 5.49454 84.8662 4.93H84.4662C84.4662 5.71545 85.0508 6.3 85.8362 6.3V5.9ZM105.488 22.3H105.688L105.291 22.265L105.488 22.3ZM92.3482 13.75V13.55H92.1482V13.75H92.3482ZM104.993 23.11L105.189 23.1529L105.19 23.1436L104.993 23.11ZM106.953 13.975V32.155H107.353V13.975H106.953ZM106.953 32.155C106.953 32.6188 107.087 33.07 107.356 33.4098C107.629 33.7543 108.035 33.975 108.548 33.975V33.575C108.161 33.575 107.87 33.4132 107.67 33.1614C107.467 32.905 107.353 32.5462 107.353 32.155H106.953ZM108.548 33.975C109.391 33.975 110.098 33.2878 110.098 32.245H109.698C109.698 33.0922 109.146 33.575 108.548 33.575V33.975ZM110.098 32.245C110.098 32.2308 110.102 32.2569 110.073 32.2852C110.045 32.3134 110.019 32.31 110.033 32.31V31.91C109.957 31.91 109.864 31.9291 109.791 32.0023C109.717 32.0756 109.698 32.1692 109.698 32.245H110.098ZM110.033 32.31C110.014 32.31 110.004 32.306 110.002 32.3053C109.999 32.3041 109.996 32.3025 109.993 32.2999C109.989 32.2972 109.983 32.2914 109.978 32.2812C109.972 32.2701 109.968 32.2572 109.968 32.245H110.368C110.368 32.1257 110.306 32.0386 110.243 31.9876C110.185 31.9416 110.108 31.91 110.033 31.91V32.31ZM109.968 32.245C109.968 32.865 109.744 33.2748 109.396 33.5363C109.038 33.8045 108.524 33.935 107.918 33.935V34.335C108.572 34.335 109.183 34.1955 109.636 33.8563C110.097 33.5102 110.368 32.975 110.368 32.245H109.968ZM107.918 33.935C107.204 33.935 106.656 33.6851 106.283 33.2365C105.906 32.7829 105.688 32.1026 105.688 31.21H105.288C105.288 32.1624 105.52 32.9446 105.976 33.4922C106.435 34.0449 107.103 34.335 107.918 34.335V33.935ZM105.688 31.21V22.3H105.288V31.21H105.688ZM105.291 22.265C104.754 25.2858 103.749 28.2382 102.29 30.4298C100.831 32.6213 98.9382 34.025 96.6232 34.025V34.425C99.1232 34.425 101.123 32.9037 102.623 30.6515C104.122 28.3993 105.142 25.3892 105.685 22.335L105.291 22.265ZM96.6232 34.025C95.0979 34.025 93.6704 33.671 92.6245 32.7055C91.5816 31.7429 90.8832 30.1397 90.8832 27.565H90.4832C90.4832 30.2103 91.2023 31.9371 92.3532 32.9995C93.501 34.059 95.0435 34.425 96.6232 34.425V34.025ZM90.8832 27.565V14.875H90.4832V27.565H90.8832ZM90.8832 14.875C90.8832 14.5295 90.7972 14.2024 90.6126 13.9562C90.4234 13.704 90.1394 13.55 89.7832 13.55V13.95C90.012 13.95 90.178 14.0435 90.2926 14.1962C90.4118 14.3551 90.4832 14.5905 90.4832 14.875H90.8832ZM89.7832 13.55H88.4332V13.95H89.7832V13.55ZM88.4332 13.55C88.431 13.55 88.4487 13.5502 88.4688 13.5689C88.4878 13.5867 88.4982 13.612 88.4982 13.6375C88.4982 13.663 88.4878 13.6883 88.4688 13.7061C88.4487 13.7248 88.431 13.725 88.4332 13.725V13.325C88.3454 13.325 88.2602 13.3533 88.1952 13.4142C88.1312 13.4742 88.0982 13.5557 88.0982 13.6375C88.0982 13.7193 88.1312 13.8008 88.1952 13.8608C88.2602 13.9217 88.3454 13.95 88.4332 13.95V13.55ZM88.4332 13.725H93.6982V13.325H88.4332V13.725ZM93.6982 13.725C93.7004 13.725 93.6827 13.7248 93.6627 13.7061C93.6437 13.6883 93.6332 13.663 93.6332 13.6375C93.6332 13.612 93.6437 13.5867 93.6627 13.5689C93.6827 13.5502 93.7004 13.55 93.6982 13.55V13.95C93.786 13.95 93.8712 13.9217 93.9363 13.8608C94.0003 13.8008 94.0332 13.7193 94.0332 13.6375C94.0332 13.5557 94.0003 13.4742 93.9363 13.4142C93.8712 13.3533 93.786 13.325 93.6982 13.325V13.725ZM93.6982 13.55H92.3482V13.95H93.6982V13.55ZM92.1482 13.75V27.7H92.5482V13.75H92.1482ZM92.1482 27.7C92.1482 30.5531 92.724 32.1727 93.6304 33.0731C94.5398 33.9766 95.7369 34.11 96.8482 34.11V33.71C95.7545 33.71 94.7016 33.5734 93.9123 32.7894C93.1199 32.0023 92.5482 30.5169 92.5482 27.7H92.1482ZM96.8482 34.11C99.0573 34.11 100.843 32.733 102.217 30.6975C103.592 28.6609 104.578 25.9342 105.189 23.1529L104.798 23.0671C104.193 25.8208 103.222 28.4941 101.886 30.4737C100.548 32.4545 98.8692 33.71 96.8482 33.71V34.11ZM105.19 23.1436C105.552 21.0201 105.688 20.2436 105.688 17.17H105.288C105.288 20.2164 105.155 20.9699 104.796 23.0764L105.19 23.1436ZM105.688 17.17V13.975H105.288V17.17H105.688ZM105.688 13.975C105.688 13.8406 105.718 13.792 105.737 13.7733C105.755 13.7546 105.804 13.725 105.938 13.725V13.325C105.758 13.325 105.581 13.3629 105.454 13.4905C105.326 13.618 105.288 13.7944 105.288 13.975H105.688ZM105.938 13.725H106.703V13.325H105.938V13.725ZM106.703 13.725C106.838 13.725 106.886 13.7546 106.905 13.7733C106.924 13.792 106.953 13.8406 106.953 13.975H107.353C107.353 13.7944 107.315 13.618 107.188 13.4905C107.06 13.3629 106.884 13.325 106.703 13.325V13.725ZM125.329 22.66H125.529L125.133 22.6198L125.329 22.66ZM125.329 13.075V13.275H125.529V13.075H125.329ZM126.994 1.69V1.49H126.794V1.69H126.994ZM125.014 23.155L125.209 23.1998L125.211 23.1909L125.212 23.1818L125.014 23.155ZM125.329 13.255H125.529V13.055H125.329V13.255ZM125.133 22.6198C124.597 25.2348 123.57 28.0882 122.086 30.2824C120.601 32.4796 118.685 33.98 116.374 33.98V34.38C118.878 34.38 120.899 32.7529 122.418 30.5064C123.938 28.2568 124.981 25.3502 125.525 22.7002L125.133 22.6198ZM116.374 33.98C114.884 33.98 113.347 33.5318 112.18 32.2456C111.01 30.9567 110.184 28.7963 110.184 25.315H109.784C109.784 28.8537 110.623 31.1258 111.883 32.5144C113.146 33.9057 114.804 34.38 116.374 34.38V33.98ZM110.184 25.315V24.37H109.784V25.315H110.184ZM110.184 24.37C110.184 17.2064 115.568 13.23 121.279 13.23V12.83C115.38 12.83 109.784 16.9536 109.784 24.37H110.184ZM121.279 13.23C121.952 13.23 122.614 13.2412 123.284 13.2525C123.953 13.2637 124.63 13.275 125.329 13.275V12.875C124.633 12.875 123.96 12.8638 123.29 12.8525C122.621 12.8413 121.956 12.83 121.279 12.83V13.23ZM125.529 13.075V2.815H125.129V13.075H125.529ZM125.529 2.815C125.529 2.46951 125.443 2.14236 125.258 1.89625C125.069 1.64399 124.785 1.49 124.429 1.49V1.89C124.658 1.89 124.824 1.98351 124.938 2.13625C125.058 2.29513 125.129 2.53049 125.129 2.815H125.529ZM124.429 1.49H122.089V1.89H124.429V1.49ZM122.089 1.49C122.087 1.49 122.105 1.49017 122.125 1.50893C122.144 1.52674 122.154 1.55196 122.154 1.5775C122.154 1.60303 122.144 1.62825 122.125 1.64606C122.105 1.66483 122.087 1.665 122.089 1.665V1.265C122.001 1.265 121.916 1.29329 121.851 1.35425C121.787 1.41424 121.754 1.49571 121.754 1.5775C121.754 1.65928 121.787 1.74075 121.851 1.80075C121.916 1.8617 122.001 1.89 122.089 1.89V1.49ZM122.089 1.665H127.669V1.265H122.089V1.665ZM127.669 1.665C127.671 1.665 127.653 1.66483 127.633 1.64606C127.614 1.62825 127.604 1.60303 127.604 1.5775C127.604 1.55196 127.614 1.52674 127.633 1.50893C127.653 1.49017 127.671 1.49 127.669 1.49V1.89C127.757 1.89 127.842 1.8617 127.907 1.80075C127.971 1.74075 128.004 1.65928 128.004 1.5775C128.004 1.49571 127.971 1.41424 127.907 1.35425C127.842 1.29329 127.757 1.265 127.669 1.265V1.665ZM127.669 1.49H126.994V1.89H127.669V1.49ZM126.794 1.69V32.155H127.194V1.69H126.794ZM126.794 32.155C126.794 32.7014 126.924 33.1593 127.202 33.4833C127.484 33.8121 127.893 33.975 128.389 33.975V33.575C127.985 33.575 127.697 33.4454 127.506 33.223C127.311 32.9957 127.194 32.6436 127.194 32.155H126.794ZM128.389 33.975C129.232 33.975 129.939 33.2878 129.939 32.245H129.539C129.539 33.0922 128.986 33.575 128.389 33.575V33.975ZM129.939 32.245C129.939 32.2308 129.942 32.2569 129.914 32.2852C129.886 32.3134 129.86 32.31 129.874 32.31V31.91C129.798 31.91 129.705 31.9291 129.631 32.0023C129.558 32.0756 129.539 32.1692 129.539 32.245H129.939ZM129.874 32.31C129.855 32.31 129.845 32.306 129.843 32.3053C129.84 32.3041 129.837 32.3025 129.833 32.2999C129.83 32.2972 129.824 32.2914 129.818 32.2812C129.812 32.2701 129.809 32.2572 129.809 32.245H130.209C130.209 32.1257 130.147 32.0386 130.083 31.9876C130.026 31.9416 129.949 31.91 129.874 31.91V32.31ZM129.809 32.245C129.809 32.851 129.613 33.2626 129.3 33.5267C128.983 33.7954 128.518 33.935 127.939 33.935V34.335C128.575 34.335 129.145 34.1821 129.559 33.8321C129.978 33.4774 130.209 32.944 130.209 32.245H129.809ZM127.939 33.935C127.055 33.935 126.467 33.5924 126.091 33.0383C125.706 32.472 125.529 31.663 125.529 30.715H125.129C125.129 31.702 125.312 32.603 125.76 33.263C126.216 33.9351 126.933 34.335 127.939 34.335V33.935ZM125.529 30.715V22.66H125.129V30.715H125.529ZM111.494 24.325V25.225H111.894V24.325H111.494ZM111.494 25.225C111.494 28.9748 112.114 31.2069 113.021 32.5057C113.939 33.8207 115.133 34.155 116.194 34.155V33.755C115.23 33.755 114.174 33.4593 113.349 32.2768C112.512 31.0781 111.894 28.9452 111.894 25.225H111.494ZM116.194 34.155H116.374V33.755H116.194V34.155ZM116.374 34.155C118.74 34.155 120.66 32.6664 122.123 30.5766C123.588 28.4847 124.62 25.7584 125.209 23.1998L124.819 23.1102C124.238 25.6366 123.222 28.3103 121.796 30.3472C120.368 32.3861 118.553 33.755 116.374 33.755V34.155ZM125.212 23.1818C125.439 21.5069 125.529 19.8779 125.529 18.385H125.129C125.129 19.8621 125.039 21.4731 124.816 23.1282L125.212 23.1818ZM125.529 18.385V13.255H125.129V18.385H125.529ZM125.329 13.055H121.549V13.455H125.329V13.055ZM121.549 13.055C118.504 13.055 115.984 14.1784 114.227 16.1598C112.473 18.1389 111.494 20.9571 111.494 24.325H111.894C111.894 21.0329 112.85 18.3161 114.527 16.4252C116.201 14.5366 118.609 13.455 121.549 13.455V13.055ZM129.882 23.335L130.082 23.3393V23.3393L129.882 23.335ZM141.762 23.38L141.811 23.5742L141.813 23.5735L141.762 23.38ZM132.312 29.59L132.118 29.6385L132.122 29.6539L132.128 29.6684L132.312 29.59ZM145.227 27.79L145.419 27.7307L145.417 27.7268L145.227 27.79ZM146.937 27.7L146.737 27.7054L146.738 27.7082L146.937 27.7ZM131.592 22.93L131.393 22.9212L131.393 22.9251L131.592 22.93ZM132.042 28.51L131.847 28.5502L132.242 28.5283L132.042 28.51ZM141.492 23.155L141.547 23.3476L141.549 23.3469L141.492 23.155ZM138.927 34.025C135.741 34.025 133.509 32.8775 132.084 30.9883C130.653 29.0907 130.015 26.4185 130.082 23.3393L129.682 23.3307C129.614 26.4615 130.26 29.2343 131.765 31.2292C133.276 33.2325 135.634 34.425 138.927 34.425V34.025ZM130.082 23.3393C130.215 17.1458 134.718 13.185 139.827 13.185V12.785C134.496 12.785 129.82 16.9242 129.682 23.3307L130.082 23.3393ZM139.827 13.185C141.914 13.185 143.623 13.6737 144.805 14.5465C145.98 15.4146 146.647 16.6713 146.647 18.25H147.047C147.047 16.5437 146.32 15.1679 145.043 14.2247C143.772 13.2863 141.971 12.785 139.827 12.785V13.185ZM146.647 18.25C146.647 19.3969 146.096 20.4502 145.196 21.3118C144.296 22.1738 143.056 22.8339 141.712 23.1865L141.813 23.5735C143.214 23.2061 144.517 22.5162 145.473 21.6007C146.429 20.6847 147.047 19.5331 147.047 18.25H146.647ZM141.714 23.1859C139.451 23.746 136.827 24.3587 134.891 25.3099C133.921 25.7859 133.103 26.3563 132.589 27.0658C132.068 27.7845 131.868 28.6354 132.118 29.6385L132.506 29.5415C132.285 28.6546 132.461 27.9248 132.913 27.3006C133.372 26.6671 134.124 26.1322 135.067 25.6689C136.955 24.7413 139.529 24.139 141.811 23.5741L141.714 23.1859ZM132.128 29.6684C132.719 31.0549 133.423 32.195 134.488 32.985C135.556 33.7771 136.963 34.2 138.927 34.2V33.8C137.022 33.8 135.706 33.3904 134.727 32.6637C133.744 31.935 133.075 30.8701 132.496 29.5116L132.128 29.6684ZM138.927 34.2C141.188 34.2 143.019 33.2765 144.182 32.009C145.341 30.7462 145.85 29.1221 145.418 27.7307L145.036 27.8493C145.415 29.0679 144.979 30.5488 143.888 31.7385C142.8 32.9235 141.076 33.8 138.927 33.8V34.2ZM145.417 27.7268C145.322 27.4402 145.368 27.2277 145.464 27.0839C145.564 26.9351 145.734 26.8371 145.922 26.8127C146.11 26.7885 146.305 26.8384 146.455 26.9715C146.604 27.1028 146.727 27.3329 146.738 27.7054L147.137 27.6946C147.125 27.2346 146.968 26.8909 146.721 26.6721C146.476 26.455 146.162 26.3784 145.871 26.416C145.582 26.4535 145.304 26.6058 145.132 26.8607C144.958 27.1204 144.908 27.4648 145.038 27.8532L145.417 27.7268ZM146.738 27.7082C146.802 29.2667 145.893 30.843 144.426 32.0394C142.963 33.2333 140.97 34.025 138.927 34.025V34.425C141.07 34.425 143.15 33.5967 144.679 32.3493C146.205 31.1045 147.208 29.4183 147.137 27.6918L146.738 27.7082ZM145.382 18.07C145.382 16.6878 145.025 15.4139 144.104 14.4865C143.182 13.5587 141.728 13.01 139.602 13.01V13.41C141.662 13.41 142.998 13.9413 143.82 14.7685C144.642 15.5961 144.982 16.7522 144.982 18.07H145.382ZM139.602 13.01C137.229 13.01 135.237 13.9225 133.807 15.6297C132.382 17.3324 131.529 19.8092 131.393 22.9212L131.792 22.9388C131.926 19.8858 132.761 17.5026 134.114 15.8865C135.463 14.275 137.341 13.41 139.602 13.41V13.01ZM131.393 22.9251C131.347 24.7819 131.483 26.7774 131.847 28.5502L132.238 28.4698C131.882 26.7326 131.748 24.7681 131.792 22.9349L131.393 22.9251ZM132.242 28.5283C132.388 26.9357 133.653 25.9207 135.462 25.1561C137.269 24.392 139.525 23.9155 141.547 23.3475L141.438 22.9625C139.455 23.5195 137.144 24.0105 135.306 24.7877C133.469 25.5643 132.012 26.6643 131.843 28.4917L132.242 28.5283ZM141.549 23.3469C142.733 22.9986 143.694 22.3569 144.359 21.4569C145.024 20.5571 145.382 19.4114 145.382 18.07H144.982C144.982 19.3386 144.644 20.3979 144.037 21.2193C143.431 22.0406 142.547 22.6364 141.436 22.9631L141.549 23.3469Z" fill="#331E26" mask="url(#path-1-outside-1_11151_737)"/>
<path d="M27.5695 57.3704C27.5695 56.7044 27.7465 56.1044 28.1005 55.5704C28.4605 55.0364 28.9495 54.6194 29.5675 54.3194C30.1855 54.0134 30.8725 53.8604 31.6285 53.8604C32.5345 53.8604 33.3295 54.0854 34.0135 54.5354C34.7035 54.9854 35.2015 55.6244 35.5075 56.4524L34.2835 56.4704C34.1575 56.1344 33.9445 55.8464 33.6445 55.6064C33.3445 55.3664 33.0115 55.1864 32.6455 55.0664C32.2855 54.9404 31.9495 54.8774 31.6375 54.8774C31.1695 54.8774 30.7105 54.9764 30.2605 55.1744C29.8165 55.3664 29.4505 55.6514 29.1625 56.0294C28.8805 56.4074 28.7395 56.8544 28.7395 57.3704C28.7395 57.8984 28.8715 58.3484 29.1355 58.7204C29.3995 59.0924 29.7505 59.3744 30.1885 59.5664C30.6325 59.7584 31.1155 59.8544 31.6375 59.8544C31.9435 59.8544 32.2645 59.7974 32.6005 59.6834C32.9365 59.5634 33.2515 59.3864 33.5455 59.1524C33.8395 58.9184 34.0735 58.6334 34.2475 58.2974H35.5165C35.1805 59.1374 34.6735 59.7764 33.9955 60.2144C33.3235 60.6524 32.5345 60.8714 31.6285 60.8714C30.8785 60.8714 30.1915 60.7184 29.5675 60.4124C28.9495 60.1064 28.4605 59.6864 28.1005 59.1524C27.7465 58.6184 27.5695 58.0244 27.5695 57.3704ZM43.1025 53.8874C43.8645 53.8874 44.5485 54.0404 45.1545 54.3464C45.7665 54.6464 46.2435 55.0634 46.5855 55.5974C46.9335 56.1254 47.1075 56.7224 47.1075 57.3884C47.1075 58.0484 46.9335 58.6424 46.5855 59.1704C46.2435 59.6984 45.7695 60.1154 45.1635 60.4214C44.5575 60.7214 43.8735 60.8714 43.1115 60.8714C42.3735 60.8714 41.6955 60.7214 41.0775 60.4214C40.4595 60.1154 39.9705 59.6984 39.6105 59.1704C39.2505 58.6364 39.0705 58.0424 39.0705 57.3884C39.0705 56.7284 39.2505 56.1314 39.6105 55.5974C39.9705 55.0634 40.4565 54.6464 41.0685 54.3464C41.6865 54.0404 42.3645 53.8874 43.1025 53.8874ZM43.1025 59.8544C43.5885 59.8544 44.0475 59.7584 44.4795 59.5664C44.9115 59.3744 45.2595 59.0924 45.5235 58.7204C45.7875 58.3484 45.9195 57.9044 45.9195 57.3884C45.9195 56.8844 45.7845 56.4434 45.5145 56.0654C45.2505 55.6874 44.8995 55.3994 44.4615 55.2014C44.0235 55.0034 43.5615 54.9044 43.0755 54.9044C42.5475 54.9044 42.0675 55.0034 41.6355 55.2014C41.2095 55.3994 40.8735 55.6874 40.6275 56.0654C40.3815 56.4374 40.2585 56.8784 40.2585 57.3884C40.2585 57.9104 40.3875 58.3574 40.6455 58.7294C40.9095 59.1014 41.2575 59.3834 41.6895 59.5754C42.1215 59.7614 42.5925 59.8544 43.1025 59.8544ZM54.6575 56.8664C55.4315 56.8664 56.0795 56.9024 56.6015 56.9744C57.1295 57.0404 57.5675 57.1994 57.9155 57.4514C58.2635 57.7034 58.4375 58.0844 58.4375 58.5944C58.4375 59.5004 58.0445 60.1124 57.2585 60.4304C56.4785 60.7424 55.5965 60.8984 54.6125 60.8984C54.0785 60.8984 53.5175 60.8384 52.9295 60.7184C52.3415 60.6044 51.8165 60.3704 51.3545 60.0164C50.8925 59.6564 50.6615 59.1494 50.6615 58.4954L51.8945 58.4594C51.8945 58.8794 52.0595 59.1914 52.3895 59.3954C52.7255 59.5994 53.0915 59.7254 53.4875 59.7734C53.8835 59.8214 54.3035 59.8454 54.7475 59.8454C55.4315 59.8454 56.0165 59.7524 56.5025 59.5664C56.9945 59.3804 57.2435 59.0684 57.2495 58.6304V58.6214C57.2495 58.3274 57.0095 58.1414 56.5295 58.0634C56.0495 57.9794 55.4615 57.9374 54.7655 57.9374H54.5315C53.6555 57.9314 52.9535 57.8924 52.4255 57.8204C51.9035 57.7484 51.4775 57.5804 51.1475 57.3164C50.8235 57.0524 50.6615 56.6444 50.6615 56.0924C50.6615 55.1624 51.0725 54.5534 51.8945 54.2654C52.7225 53.9774 53.6285 53.8334 54.6125 53.8334C55.1225 53.8334 55.6625 53.8934 56.2325 54.0134C56.8025 54.1274 57.3125 54.3644 57.7625 54.7244C58.2125 55.0784 58.4375 55.5824 58.4375 56.2364H57.2045C57.2045 55.8104 56.9555 55.4894 56.4575 55.2734C55.9655 55.0514 55.3625 54.9254 54.6485 54.8954C53.8685 54.8954 53.2055 54.9914 52.6595 55.1834C52.1195 55.3694 51.8495 55.6634 51.8495 56.0654C51.8495 56.4014 52.1015 56.6204 52.6055 56.7224C53.1095 56.8184 53.7125 56.8664 54.4145 56.8664H54.4235H54.5765H54.6485H54.6575ZM70.6265 54.0314V60.6914H69.4565V55.9484L67.1435 60.6914H65.8745L63.3905 55.8674V60.6914H62.2205V54.0314H63.7145L66.4955 59.4224L69.1235 54.0314H70.6265ZM80.4879 57.7214H75.7539V59.6924L81.2439 59.6564V60.6914H74.5839V54.0314H81.2439L81.2529 55.0664H75.7539V56.6864H80.4879V57.7214ZM84.9403 55.0394V54.0314H92.3293L84.9403 55.0394ZM92.3293 54.0314V55.0664H89.2423V60.6914H88.0723V55.0664H84.9403V54.0314H92.3293ZM97.3255 60.6914H96.1555V54.0314H97.3255V60.6914ZM101.105 57.3704C101.105 56.7044 101.282 56.1044 101.636 55.5704C101.996 55.0364 102.485 54.6194 103.103 54.3194C103.721 54.0134 104.408 53.8604 105.164 53.8604C106.07 53.8604 106.865 54.0854 107.549 54.5354C108.239 54.9854 108.737 55.6244 109.043 56.4524L107.819 56.4704C107.693 56.1344 107.48 55.8464 107.18 55.6064C106.88 55.3664 106.547 55.1864 106.181 55.0664C105.821 54.9404 105.485 54.8774 105.173 54.8774C104.705 54.8774 104.246 54.9764 103.796 55.1744C103.352 55.3664 102.986 55.6514 102.698 56.0294C102.416 56.4074 102.275 56.8544 102.275 57.3704C102.275 57.8984 102.407 58.3484 102.671 58.7204C102.935 59.0924 103.286 59.3744 103.724 59.5664C104.168 59.7584 104.651 59.8544 105.173 59.8544C105.479 59.8544 105.8 59.7974 106.136 59.6834C106.472 59.5634 106.787 59.3864 107.081 59.1524C107.375 58.9184 107.609 58.6334 107.783 58.2974H109.052C108.716 59.1374 108.209 59.7764 107.531 60.2144C106.859 60.6524 106.07 60.8714 105.164 60.8714C104.414 60.8714 103.727 60.7184 103.103 60.4124C102.485 60.1064 101.996 59.6864 101.636 59.1524C101.282 58.6184 101.105 58.0244 101.105 57.3704ZM116.647 56.8664C117.421 56.8664 118.069 56.9024 118.591 56.9744C119.119 57.0404 119.557 57.1994 119.905 57.4514C120.253 57.7034 120.427 58.0844 120.427 58.5944C120.427 59.5004 120.034 60.1124 119.248 60.4304C118.468 60.7424 117.586 60.8984 116.602 60.8984C116.068 60.8984 115.507 60.8384 114.919 60.7184C114.331 60.6044 113.806 60.3704 113.344 60.0164C112.882 59.6564 112.651 59.1494 112.651 58.4954L113.884 58.4594C113.884 58.8794 114.049 59.1914 114.379 59.3954C114.715 59.5994 115.081 59.7254 115.477 59.7734C115.873 59.8214 116.293 59.8454 116.737 59.8454C117.421 59.8454 118.006 59.7524 118.492 59.5664C118.984 59.3804 119.233 59.0684 119.239 58.6304V58.6214C119.239 58.3274 118.999 58.1414 118.519 58.0634C118.039 57.9794 117.451 57.9374 116.755 57.9374H116.521C115.645 57.9314 114.943 57.8924 114.415 57.8204C113.893 57.7484 113.467 57.5804 113.137 57.3164C112.813 57.0524 112.651 56.6444 112.651 56.0924C112.651 55.1624 113.062 54.5534 113.884 54.2654C114.712 53.9774 115.618 53.8334 116.602 53.8334C117.112 53.8334 117.652 53.8934 118.222 54.0134C118.792 54.1274 119.302 54.3644 119.752 54.7244C120.202 55.0784 120.427 55.5824 120.427 56.2364H119.194C119.194 55.8104 118.945 55.4894 118.447 55.2734C117.955 55.0514 117.352 54.9254 116.638 54.8954C115.858 54.8954 115.195 54.9914 114.649 55.1834C114.109 55.3694 113.839 55.6634 113.839 56.0654C113.839 56.4014 114.091 56.6204 114.595 56.7224C115.099 56.8184 115.702 56.8664 116.404 56.8664H116.413H116.566H116.638H116.647Z" fill="#331E26"/>
</g>
<defs>
<clipPath id="clip0_11151_737">
<rect width="148" height="62" fill="white"/>
</clipPath>
</defs>
</svg>
