<svg width="80" height="80" viewBox="0 0 80 80" fill="none" xmlns="http://www.w3.org/2000/svg">
<g clip-path="url(#clip0_15001_3010)">
<path d="M80.0489 0H-3.82617V81.2322H80.0489V0Z" fill="#005BFF"/>
<path fill-rule="evenodd" clip-rule="evenodd" d="M37.4794 40.7289L36.2436 36.0932L44.3963 30.7969L54.1426 31.4467L55.5684 35.9795L99.9998 82.271L30.501 102.666L37.4794 40.7289Z" fill="#F91155"/>
<path fill-rule="evenodd" clip-rule="evenodd" d="M5.09253 54.3072C1.93883 55.569 -1.58392 53.5328 -2.07039 50.1644C-2.4003 47.8682 -1.09744 45.6099 1.04976 44.7489C4.20346 43.4871 7.72621 45.5233 8.21269 48.8917C8.54259 51.1879 7.23974 53.4461 5.09253 54.3072ZM1.45236 39.967C-4.64256 40.9201 -8.22682 47.1371 -6.00134 52.9046C-4.35739 57.172 0.177457 59.7931 4.68993 59.0837C10.7849 58.1305 14.3691 51.9136 12.1436 46.1461C10.4997 41.8787 5.96483 39.2576 1.45236 39.967Z" fill="white"/>
<path fill-rule="evenodd" clip-rule="evenodd" d="M15.0741 36.6091C13.7042 36.9665 12.9661 38.472 13.6371 39.7934C14.1291 40.7628 15.2978 41.2122 16.3602 40.9361L22.5278 39.3331L16.3714 54.2852C16.1701 54.778 16.6286 55.2871 17.1486 55.1517L32.2126 51.2417C33.275 50.9655 34.0578 50.0124 33.9851 48.9347C33.8845 47.4617 32.4642 46.5194 31.0943 46.8714L23.5791 48.821L29.7299 33.8797C29.9312 33.3869 29.4727 32.867 28.9415 33.0078L15.0741 36.6091Z" fill="white"/>
<path fill-rule="evenodd" clip-rule="evenodd" d="M75.2229 20.9033C74.25 21.3853 73.8026 22.5063 74.0878 23.5352L76.0896 30.7757L61.4674 24.5641C60.9586 24.3475 60.4218 24.8024 60.5671 25.3223L64.705 40.269C64.9902 41.298 65.9575 42.0561 67.0479 42.002C68.5688 41.9262 69.5418 40.529 69.1671 39.1751L67.1485 31.875L81.7708 38.0866C82.2796 38.3032 82.8164 37.8483 82.671 37.3284L78.522 22.3275C78.1474 20.9737 76.5817 20.2372 75.2285 20.9033H75.2229Z" fill="white"/>
<path fill-rule="evenodd" clip-rule="evenodd" d="M43.8257 28.6586C36.5007 30.5595 31.7254 36.289 33.1568 41.4554C34.5883 46.6218 41.6841 49.2699 49.0036 47.3691C56.3231 45.4683 61.104 39.7387 59.6725 34.5723C58.2411 29.406 51.1508 26.7578 43.8257 28.6586ZM45.0335 33.0235C50.094 31.713 54.6009 33.3647 55.2551 35.7204C55.9093 38.0761 52.8563 41.6937 47.7958 43.0042C42.7354 44.3148 38.2285 42.6631 37.5743 40.3073C36.92 37.9516 39.9731 34.3341 45.0335 33.0235Z" fill="white"/>
</g>
<defs>
<clipPath id="clip0_15001_3010">
<rect width="80" height="80" rx="18" fill="white"/>
</clipPath>
</defs>
</svg>
